<svg xmlns="http://www.w3.org/2000/svg" viewBox="0 0 1031.811 283.465"><path d="M143.657 225.17c11.61 0 20.458 2.288 26.265 7.57 4.608 4.137 8.017 10.473 8.017 18.837 0 10.65-4.423 18.398-11.427 23.5-6.82 5.018-16.312 7.308-27.74 7.308h-22.208v-2.81c6.808-.616 7.555-1.14 7.555-8.606V236.7c0-7.57-.83-8.098-7.555-8.627v-2.903h27.092zm-8.744 44.89c0 6.41 1.93 8.43 8.076 8.43 13.43 0 21.42-10.536 21.42-25.553 0-8.692-2.897-15.718-7.99-19.756-3.774-3.247-8.515-4.83-14.486-4.83-3.425 0-5.356.615-6.058 1.23-.7.7-.964 2.018-.964 4.917v35.563zM222.51 262.068c0 14.14-10.27 21.077-19.928 21.077-13.17 0-20.105-9.836-20.105-19.495 0-14.314 11.237-21.25 20.367-21.25 11.767 0 19.666 9.045 19.666 19.668zm-29.06-1.494c0 10.89 3.952 19.322 10.097 19.322 4.127 0 7.99-2.81 7.99-15.456 0-11.504-3.513-18.88-9.833-18.88-4.302 0-8.253 5.005-8.253 15.014zM262.55 273.836c-3.952 5.444-9.746 9.31-15.012 9.31-11.677 0-18.527-9.047-18.527-18.53 0-6.585 3.163-12.644 8.87-16.947 5.265-3.957 10.883-5.27 14.31-5.27 3.247 0 6.145.966 7.64 2.196 1.225.965 1.58 1.843 1.58 2.983-.09 2.284-2.195 4.476-3.512 4.476-.53 0-1.055-.26-1.845-.963-3.248-2.9-6.145-4.217-8.868-4.217-4.302 0-8.604 3.864-8.604 13.26 0 11.854 8.343 15.717 12.556 15.717 3.687 0 6.322-.965 9.834-4.04l1.58 2.023zM310.838 280.025c-4.61.686-9.477 1.796-14.514 3.076l-.596-.598v-5.593c-1.756 1.31-3.068 2.54-5.17 3.768-2.54 1.577-4.73 2.454-7.273 2.454-6.836 0-11.302-4.295-11.302-12.708v-17.52c0-4.83-.285-5.206-5.397-6.344v-2.386c5.067-.18 10.135-.723 15.382-1.54-.18 3.443-.272 7.878-.272 13.49v12.21c0 6.45 3.313 8.455 6.622 8.455 2.616 0 5.056-.786 7.41-3.053v-20.86c0-4.978-.377-5.35-6.477-6.29v-2.236c5.246-.18 10.58-.633 16.19-1.537v29.067c0 4.187.484 4.832 3.463 5.155l1.934.16v2.83zM362.645 282.385v-2.634c4.558-.527 5.397-.877 5.397-6.67v-15.342c0-6.676-2.826-8.985-6.503-8.985-2.226 0-4.79 1.026-7.7 3.422.085 1.027.17 2.14.17 3.51v17.92c0 5.18.757 5.62 5.398 6.147v2.634H338.9v-2.634c4.84-.528 5.397-.878 5.397-6.236v-16.124c0-6.162-2.566-8.645-6.503-8.645-2.568 0-5.135 1.37-7.528 3.336v21.432c0 5.27.616 5.708 4.317 6.236v2.635h-20.507v-2.634c4.833-.527 5.397-.966 5.397-6.495v-18.648l-4.317-6.674v-2.404c3.957-.604 9.298-1.812 14.03-3.36v6.902c1.944-1.325 3.71-2.737 5.918-4.06 2.56-1.68 4.857-2.652 7.507-2.652 4.68 0 8.302 2.826 9.98 7.067 2.294-1.767 4.5-3.268 6.71-4.684 1.94-1.325 4.238-2.384 6.887-2.384 7.33 0 11.57 5.035 11.57 13.956v17.2c0 5.357.54 5.62 5.395 6.235v2.635h-20.507zM420.94 273.923c-5.357 7.466-11.94 9.222-15.277 9.222-11.325 0-17.736-8.693-17.736-18.794 0-6.41 2.548-11.94 6.234-15.628 3.78-3.953 8.605-6.323 13.26-6.323 7.812 0 13.87 6.762 13.87 13.786 0 1.754-.527 2.807-2.37 3.072-1.58.266-12.378 1.054-21.597 1.406.26 10.363 6.057 15.19 12.292 15.19 3.424 0 6.758-1.23 9.83-4.04l1.494 2.11zm-23.178-17.21c4.04 0 7.902-.088 11.94-.264 1.406 0 1.933-.264 2.02-1.668 0-4.566-2.37-8.958-6.233-8.958-3.6 0-6.936 3.95-7.728 10.89zM451.147 282.385v-2.634c3.837-.527 4.317-.966 4.317-7.2v-15.16c0-6.076-2.652-8.643-6.588-8.643-2.654 0-5.133 1.37-7.443 3.253v21.255c0 5.618.49 5.968 4.317 6.496v2.635h-20.507v-2.634c6.008-.7 6.476-.966 6.476-6.76v-18.153c0-5.974-.48-6.262-5.398-7.226v-1.986c4.825-.637 10.196-1.915 15.11-3.55v6.74c1.74-1.218 3.48-2.522 5.566-3.827 2.52-1.654 4.435-2.523 6.956-2.523 6.96 0 11.222 5.046 11.222 13.66v17.04c0 5.71.53 5.973 5.396 6.588v2.634h-19.425zM491.97 282.09c-1.49.702-2.895 1.055-3.6 1.055-6.32 0-9.92-3.25-10.24-10.89V247.84h-5.385l-.44-1.49 2.458-2.83h3.367v-6.477l8.747-6.497.967.437v12.538h9.306c.964.808.793 3.18-.526 4.32h-8.78v21.517c.177 6.937 3.335 7.905 5.268 7.905 1.755 0 3.338-.528 4.74-1.145l.877 2.724-6.76 3.25zM574.544 283.01c-.72 0-1.797-.09-2.786-.09-9.713-.437-13.308-2.718-17.09-8.335-2.61-3.864-5.4-8.865-8.004-13.34-1.436-2.635-3.058-3.69-6.565-3.69h-2.61V270.9c0 7.24.79 8.04 7.556 8.657v2.828h-24.824v-2.81c6.612-.616 7.555-1.317 7.555-8.606v-34.48c0-7.196-.81-7.9-7.555-8.427v-2.895h24.195c7.37 0 11.867.878 15.464 3.16 3.602 2.37 6.028 6.23 6.028 11.674 0 7.635-5.13 11.936-11.335 14.48 1.445 2.72 4.863 8.6 7.56 12.552 3.236 4.827 5.13 7.46 7.104 9.39 2.064 2.283 3.773 3.337 5.845 3.95l-.538 2.635zm-34.16-28.693c4.044 0 6.936-.702 8.958-2.37 3.072-2.548 4.39-6.06 4.39-10.627 0-9.396-5.62-12.908-11.24-12.908-2.28 0-3.602.44-4.213.878-.614.525-.788 1.493-.788 3.51v21.517h2.892zM609.36 273.923c-5.356 7.466-11.942 9.222-15.28 9.222-11.323 0-17.733-8.693-17.733-18.794 0-6.41 2.547-11.94 6.235-15.628 3.77-3.953 8.605-6.323 13.254-6.323 7.812 0 13.87 6.762 13.87 13.786 0 1.754-.526 2.807-2.366 3.072-1.583.266-12.38 1.054-21.6 1.406.266 10.363 6.06 15.19 12.296 15.19 3.424 0 6.756-1.23 9.83-4.04l1.494 2.11zm-23.18-17.21c4.043 0 7.9-.088 11.943-.264 1.403 0 1.93-.264 2.017-1.668 0-4.566-2.368-8.958-6.234-8.958-3.595 0-6.932 3.95-7.725 10.89zM655.135 246.09c-4.527.8-5.508 1.685-7.548 6.288-3.11 6.998-7.642 17.715-12.796 31.086h-3.102c-4.263-10.892-8.267-21.077-12.525-31.264-1.777-4.34-2.76-5.224-7.2-6.11v-2.57h20.508v2.547c-4.175.792-4.524 1.495-3.324 4.743 2.126 6.146 5.367 15.013 7.07 19.584 2.135-5.183 4.86-13.172 6.733-19.145 1.11-3.337.682-4.392-4.003-5.184v-2.546h16.19v2.57zM695.75 262.068c0 14.14-10.266 21.077-19.928 21.077-13.167 0-20.102-9.836-20.102-19.495 0-14.314 11.237-21.25 20.368-21.25 11.764 0 19.663 9.045 19.663 19.668zm-29.052-1.494c0 10.89 3.944 19.322 10.093 19.322 4.125 0 7.99-2.81 7.99-15.456 0-11.504-3.513-18.88-9.835-18.88-4.303 0-8.247 5.005-8.247 15.014zM699.387 282.385v-2.634c4.915-.7 5.397-1.14 5.397-6.847v-41.03c0-5.4-.427-5.655-5.397-6.167v-2.546c4.807-.524 10.92-1.833 15.11-3.056v52.8c0 5.88.654 6.32 6.476 6.847v2.635h-21.586zM767.382 280.025c-4.604.686-9.473 1.796-14.512 3.077l-.6-.6v-5.592c-1.754 1.312-3.066 2.54-5.17 3.77-2.543 1.576-4.727 2.453-7.27 2.453-6.836 0-11.304-4.296-11.304-12.71v-17.52c0-4.828-.29-5.206-5.396-6.343v-2.386c5.065-.18 10.13-.723 15.377-1.54-.177 3.443-.267 7.878-.267 13.49v12.21c0 6.45 3.314 8.457 6.623 8.457 2.614 0 5.056-.784 7.408-3.052v-20.86c0-4.978-.373-5.35-6.475-6.29v-2.236c5.246-.18 10.584-.634 16.19-1.538v29.067c0 4.19.485 4.834 3.47 5.157l1.927.16v2.828zM789.526 282.09c-1.49.702-2.898 1.055-3.603 1.055-6.32 0-9.917-3.25-9.907-10.89V247.84h-5.723l-.43-1.49 2.453-2.83h3.7v-6.477l8.415-6.497 1.3.437v12.538h8.975c.965.808.792 3.18-.526 4.32h-8.45v21.517c-.155 6.937 3.003 7.905 4.94 7.905 1.755 0 3.338-.528 4.737-1.145l.876 2.724-6.757 3.25zM799.76 282.385v-2.634c4.908-.614 5.397-.966 5.397-7.112V254.89c0-5.954-.557-6.325-5.396-7.07v-2.22c5.13-.63 10.526-1.8 15.11-3.328v30.366c0 5.973.407 6.498 5.397 7.113v2.635H799.76zm4.253-51.838c0-3.163 2.632-5.62 5.618-5.62 3.162 0 5.62 2.457 5.62 5.62 0 2.983-2.458 5.53-5.704 5.53-2.9 0-5.533-2.547-5.533-5.53zM865.204 262.068c0 14.14-10.27 21.077-19.93 21.077-13.166 0-20.1-9.836-20.1-19.495 0-14.314 11.236-21.25 20.367-21.25 11.762 0 19.664 9.045 19.664 19.668zm-29.054-1.494c0 10.89 3.942 19.322 10.093 19.322 4.123 0 7.988-2.81 7.988-15.456 0-11.504-3.51-18.88-9.834-18.88-4.304 0-8.246 5.005-8.246 15.014zM894.74 282.385v-2.634c3.842-.527 4.317-.966 4.317-7.2v-15.157c0-6.078-2.653-8.646-6.588-8.646-2.66 0-5.135 1.37-7.444 3.254v21.256c0 5.618.484 5.968 4.317 6.496v2.634h-20.507v-2.634c6.007-.702 6.476-.967 6.476-6.76V254.84c0-5.98-.482-6.27-5.396-7.233v-1.983c4.82-.637 10.19-1.915 15.11-3.55v6.74c1.74-1.218 3.478-2.523 5.56-3.827 2.524-1.655 4.435-2.524 6.96-2.524 6.963 0 11.225 5.047 11.225 13.66v17.04c0 5.71.53 5.973 5.397 6.588v2.635H894.74z"/><g><path fill="#0068B7" d="M62.622 60.002H.196l70.022-47.5h62.414"/><path fill="#E60012" d="M134.588 60.002H72.162l70.022-47.5h62.414"/><path fill="#0068B7" d="M143.462 113.98h62.408l-70.002-47.5h-62.42M71.495 113.98h62.41L63.9 66.48H1.484"/><path d="M296.684 41.65c-1.957-7.047-5.727-20.33-26.07-20.33-11.796 0-29.174 7.866-29.174 41.16 0 21.15 8.35 40.173 29.174 40.173 13.61 0 23.12-7.708 26.07-22.14h24.595c-4.92 25.584-21.644 43.46-51.147 43.46-31.33 0-53.782-21.156-53.782-61.823C216.35 20.986 240.127 0 270.46 0c35.24 0 49.507 24.27 50.818 41.65h-24.594zM384.76 119.072c-10.723 32.01-13.657 36.236-33.467 36.236-3.086 0-6.987-.162-10.234-.326v-18.2c.974.163 2.437.326 4.385.326 8.286 0 12.824-1.137 14.946-13l-31.84-90.014h25.343l18.52 63.692h.326l17.694-63.692h24.045l-29.72 84.978zM487.916 77.967c0 10.237-4.064 26.17-18.694 26.17-14.467 0-20.156-12.03-20.156-24.875 0-13.815 3.9-27.797 19.505-27.797 14.457 0 19.346 12.84 19.346 26.502m-37.848-74.1h-22.665v116.59h22.665V109.66h.328c5.56 9.815 15.7 13.25 25.176 13.25 25.85 0 36.643-22.9 36.643-46.777 0-30.1-17.007-44.82-36.143-44.82-14.72 0-21.588 8.02-25.184 13.576h-.82V3.866zM543.822 68.638c1.3-11.375 6.988-18.203 17.716-18.203 7.316 0 16.256 4.227 17.557 18.203h-35.127m33.548 26.99c-1.813 6.27-8.41 9.564-14.84 9.564-18.63 0-19.95-14.843-20.61-21.44h60.183V79.63c0-40.07-23.91-48.314-41.223-48.314-38.416 0-42.034 33.806-42.034 44.356 0 36.117 18.952 47.99 43.682 47.99 15.005 0 32.484-6.925 38.583-28.035h-23.742zM617.36 34.093h21.586v15.113h.44c4.63-8.78 9.74-17.233 23.31-17.233 1.437 0 2.885.167 4.312.33v23.08c-1.917-.325-4.31-.325-6.388-.325-17.393 0-20.595 11.056-20.595 20.642v44.753H617.36v-86.36zM736.083 120.456H711.26V24.378h-34.54V3.868h94.98v20.51h-35.617M791.07 68.638c1.3-11.375 6.99-18.203 17.718-18.203 7.315 0 16.255 4.227 17.553 18.203h-35.213m33.56 26.99c-1.813 6.27-8.41 9.564-14.84 9.564-18.632 0-19.95-14.843-20.61-21.44h60.17V79.63c0-40.07-23.897-48.314-41.21-48.314-38.416 0-42.044 33.806-42.044 44.356 0 36.117 18.962 47.99 43.692 47.99 15.005 0 32.485-6.925 38.583-28.035h-23.742zM938.798 89.15c-.81 8.83-7.7 33.377-38.995 33.377-32.088 0-39.457-24.546-39.457-42.525 0-27.594 12.022-47.33 40.9-47.33 13.487 0 35.617 6.096 37.702 32.728h-22.78c-.964-5.61-4.494-14.437-14.922-13.79-14.117 0-17.808 14.11-17.808 24.708 0 9.306.32 27.756 17.326 27.756 11.39 0 15.253-10.912 15.253-14.924h22.78zM1031.81 120.456h-22.664V67.94c0-6.334-.323-17.06-14.652-17.06-9.99 0-17.727 6.823-17.727 19.993v49.582h-22.665V3.867h22.665V44.89h.326c2.904-7.182 12.58-13.547 24.86-13.547 16.793 0 29.858 9.956 29.858 29.052v60.06z"/></g><path d="M0 179.83h1031.81v2.16H0z"/></svg>